<svg width="19" height="18" viewBox="0 0 19 18" fill="none" xmlns="http://www.w3.org/2000/svg">
<path d="M9.8511 3.19433C9.60776 3.43425 9.58493 3.81335 9.78441 4.07935L9.84433 4.1489L13.9625 8.325L3.425 8.325C3.05221 8.325 2.75 8.62721 2.75 9C2.75 9.34412 3.0075 9.62809 3.34033 9.66974L3.425 9.675H13.9625L9.84433 13.8511C9.60441 14.0944 9.58697 14.4738 9.7902 14.737L9.8511 14.8057C10.0944 15.0456 10.4738 15.063 10.737 14.8598L10.8057 14.7989L16.0557 9.4739C16.2932 9.23299 16.313 8.85817 16.115 8.59494L16.0557 8.5261L10.8057 3.2011C10.5439 2.93563 10.1166 2.9326 9.8511 3.19433Z" fill="white"/>
</svg>
