<svg width="21" height="21" viewBox="0 0 21 21" fill="none" xmlns="http://www.w3.org/2000/svg">
<g clip-path="url(#clip0_20_1306)">
<path d="M15.35 20.3799C13.5277 20.3799 11.75 20.0465 10.0166 19.3799C8.1944 18.6688 6.58328 17.6021 5.18328 16.1799C3.78328 14.7577 2.70551 13.1354 1.94995 11.3132C1.28328 9.57988 0.949951 7.8021 0.949951 5.97988C0.949951 4.95766 1.20551 4.02433 1.71662 3.17988C2.22773 2.33544 2.90551 1.65766 3.74995 1.14655C4.5944 0.635437 5.52773 0.379881 6.54995 0.379881C6.81662 0.379881 6.9944 0.513216 7.08328 0.779882L9.61662 7.04655C9.66106 7.17988 9.64995 7.32433 9.58329 7.47988C9.51662 7.63544 9.41662 7.73544 9.28329 7.77988L6.54995 8.91322C6.5944 9.93544 6.88329 10.891 7.41662 11.7799C7.94995 12.6688 8.66106 13.3799 9.54995 13.9132C10.4388 14.4465 11.3944 14.7354 12.4166 14.7799L13.55 12.0465C13.5944 11.9132 13.6944 11.8132 13.85 11.7465C14.0055 11.6799 14.15 11.6688 14.2833 11.7132L20.55 14.2465C20.8166 14.3354 20.95 14.5132 20.95 14.7799C20.95 15.8021 20.6944 16.7354 20.1833 17.5799C19.6722 18.4243 18.9944 19.1021 18.15 19.6132C17.3055 20.1243 16.3722 20.3799 15.35 20.3799ZM6.14995 1.57988C5.03884 1.66877 4.0944 2.13544 3.31662 2.97988C2.53884 3.82433 2.14995 4.82433 2.14995 5.97988C2.14995 7.75766 2.48328 9.44655 3.14995 11.0465C3.81662 12.6465 4.77217 14.0688 6.01662 15.3132C7.26106 16.5577 8.68328 17.5132 10.2833 18.1799C11.8833 18.8465 13.5722 19.1799 15.35 19.1799C16.5055 19.1799 17.5055 18.791 18.35 18.0132C19.1944 17.2354 19.6611 16.291 19.75 15.1799L14.4166 13.0465L13.35 15.6465C13.2611 15.8688 13.0833 15.9799 12.8166 15.9799C11.4833 15.9799 10.2388 15.6465 9.08329 14.9799C7.92773 14.3132 7.01662 13.4021 6.34995 12.2465C5.68328 11.091 5.34995 9.84655 5.34995 8.51322C5.34995 8.24655 5.46106 8.06877 5.68328 7.97988L8.28328 6.91322L6.14995 1.57988Z" fill="#1A1A1A"/>
</g>
<defs>
<clipPath id="clip0_20_1306">
<rect width="20" height="20" fill="white" transform="matrix(1 0 0 -1 0.949951 20.3799)"/>
</clipPath>
</defs>
</svg>
