<svg width="20" height="21" viewBox="0 0 20 21" fill="none" xmlns="http://www.w3.org/2000/svg">
<g clip-path="url(#clip0_20_1417)">
<path d="M16.1334 3.5033C15.2889 2.7033 14.3445 2.08108 13.3 1.63664C12.2556 1.19219 11.1556 0.969969 10 0.969969C8.84449 0.969969 7.73337 1.19219 6.66671 1.63664C5.60004 2.08108 4.66671 2.7033 3.86671 3.5033C3.06671 4.3033 2.44449 5.23664 2.00004 6.3033C1.5556 7.36997 1.33337 8.48108 1.33337 9.63664C1.33337 10.7922 1.5556 11.8922 2.00004 12.9366C2.44449 13.9811 3.06671 14.9255 3.86671 15.77L8.46671 20.37C8.86671 20.77 9.36671 20.97 9.96671 20.97C10.5667 20.97 11.0889 20.77 11.5334 20.37L16.1334 15.77C16.9334 14.9255 17.5556 13.9811 18 12.9366C18.4445 11.8922 18.6667 10.7922 18.6667 9.63664C18.6667 8.48108 18.4445 7.36997 18 6.3033C17.5556 5.23664 16.9334 4.3033 16.1334 3.5033ZM15.2667 14.9033L10.6667 19.5033C10.4889 19.6811 10.2667 19.77 10 19.77C9.73337 19.77 9.48893 19.6811 9.26671 19.5033L4.66671 14.9033C3.9556 14.1922 3.42226 13.3811 3.06671 12.47C2.71115 11.5589 2.53337 10.6033 2.53337 9.6033C2.53337 8.6033 2.71115 7.64775 3.06671 6.73664C3.42226 5.82553 3.9556 5.02553 4.66671 4.33664C5.37782 3.64775 6.18893 3.11441 7.10004 2.73664C8.01115 2.35886 8.96671 2.16997 9.96671 2.16997C10.9667 2.16997 11.9223 2.35886 12.8334 2.73664C13.7445 3.11441 14.5556 3.63664 15.2667 4.3033C16.2445 5.28108 16.9 6.41441 17.2334 7.7033C17.5667 8.99219 17.5667 10.2811 17.2334 11.57C16.9 12.8589 16.2445 13.97 15.2667 14.9033ZM10 6.5033C9.1556 6.5033 8.42226 6.81441 7.80004 7.43664C7.17782 8.05886 6.86671 8.79219 6.86671 9.63664C6.86671 10.4811 7.17782 11.2033 7.80004 11.8033C8.42226 12.4033 9.1556 12.7033 10 12.7033C10.8445 12.7033 11.5667 12.4033 12.1667 11.8033C12.7667 11.2033 13.0667 10.4811 13.0667 9.63664C13.0667 8.79219 12.7667 8.05886 12.1667 7.43664C11.5667 6.81441 10.8445 6.5033 10 6.5033ZM10 11.57C9.46671 11.57 9.01115 11.3811 8.63337 11.0033C8.2556 10.6255 8.06671 10.17 8.06671 9.63664C8.06671 9.1033 8.2556 8.64775 8.63337 8.26997C9.01115 7.89219 9.46671 7.7033 10 7.7033C10.5334 7.7033 10.9889 7.89219 11.3667 8.26997C11.7445 8.64775 11.9334 9.1033 11.9334 9.63664C11.9334 10.17 11.7445 10.6255 11.3667 11.0033C10.9889 11.3811 10.5334 11.57 10 11.57Z" fill="#1A1A1A"/>
</g>
<defs>
<clipPath id="clip0_20_1417">
<rect width="20" height="20" fill="white" transform="matrix(1 0 0 -1 0 20.97)"/>
</clipPath>
</defs>
</svg>
