<svg width="17" height="17" viewBox="0 0 17 17" fill="none" xmlns="http://www.w3.org/2000/svg">
<g clip-path="url(#clip0_20_1310)">
<path d="M8.69501 8.61322C9.76168 8.61322 10.6683 8.23099 11.415 7.46655C12.1617 6.7021 12.535 5.78655 12.535 4.71988C12.535 3.65322 12.1617 2.74655 11.415 1.99988C10.6683 1.25322 9.76168 0.879883 8.69501 0.879883C7.62834 0.879883 6.72168 1.25322 5.97501 1.99988C5.22834 2.74655 4.85501 3.65322 4.85501 4.71988C4.85501 5.78655 5.22834 6.7021 5.97501 7.46655C6.72168 8.23099 7.62834 8.61322 8.69501 8.61322ZM6.61501 2.69322C7.1839 2.12433 7.86834 1.83988 8.66834 1.83988C9.46834 1.83988 10.1617 2.12433 10.7483 2.69322C11.335 3.2621 11.6283 3.94655 11.6283 4.74655C11.6283 5.54655 11.3439 6.23099 10.775 6.79988C10.2061 7.36877 9.51279 7.65322 8.69501 7.65322C7.87723 7.65322 7.1839 7.36877 6.61501 6.79988C6.04612 6.23099 5.76168 5.54655 5.76168 4.74655C5.76168 3.94655 6.04612 3.2621 6.61501 2.69322ZM15.415 13.1999C15.415 12.8799 15.3795 12.5332 15.3083 12.1599C15.2372 11.7865 15.1483 11.4488 15.0417 11.1465C14.935 10.8443 14.7928 10.5332 14.615 10.2132C14.4372 9.89322 14.2328 9.61766 14.0017 9.38655C13.7706 9.15544 13.4772 8.96877 13.1217 8.82655C12.7661 8.68433 12.375 8.61322 11.9483 8.61322C11.8061 8.61322 11.5928 8.7021 11.3083 8.87988L10.6683 9.30655C10.455 9.44877 10.1706 9.57322 9.81501 9.67988C9.45945 9.78655 9.11279 9.83988 8.77501 9.83988C8.43723 9.83988 8.09057 9.78655 7.73501 9.67988C7.37945 9.57322 7.11279 9.44877 6.93501 9.30655L6.24168 8.87988C5.99279 8.7021 5.79723 8.61322 5.65501 8.61322C5.22834 8.61322 4.83723 8.68433 4.48168 8.82655C4.12612 8.96877 3.8239 9.15544 3.57501 9.38655C3.32612 9.61766 3.11279 9.89322 2.93501 10.2132C2.75723 10.5332 2.61501 10.8532 2.50834 11.1732C2.40168 11.4932 2.32168 11.831 2.26834 12.1865C2.21501 12.5421 2.17945 12.871 2.16168 13.1732C2.1439 13.4754 2.13501 13.7865 2.13501 14.1065C2.13501 14.9599 2.39279 15.6354 2.90834 16.1332C3.4239 16.631 4.10834 16.8799 4.96168 16.8799H12.6417C13.4595 16.8799 14.135 16.631 14.6683 16.1332C15.2017 15.6354 15.4683 14.9599 15.4683 14.1065C15.4683 13.7865 15.4506 13.4843 15.415 13.1999ZM14.0283 15.4399C13.6728 15.7599 13.2106 15.9199 12.6417 15.9199H4.96168C4.35723 15.9199 3.88612 15.7599 3.54834 15.4399C3.21057 15.1199 3.04168 14.6754 3.04168 14.1065L3.09501 13.2532C3.09501 12.9688 3.13057 12.6665 3.20168 12.3465C3.27279 12.0265 3.3439 11.7332 3.41501 11.4665C3.48612 11.1999 3.59279 10.9421 3.73501 10.6932C3.87723 10.4443 4.03723 10.2399 4.21501 10.0799C4.39279 9.91988 4.59723 9.79544 4.82834 9.70655C5.05945 9.61766 5.29945 9.57322 5.54834 9.57322L6.40168 10.1065C6.68612 10.2843 7.04168 10.4354 7.46834 10.5599C7.89501 10.6843 8.33057 10.7465 8.77501 10.7465C9.21945 10.7465 9.6639 10.6843 10.1083 10.5599C10.5528 10.4354 10.8995 10.2843 11.1483 10.1065L12.0017 9.57322C12.2861 9.57322 12.5439 9.61766 12.775 9.70655C13.0061 9.79544 13.2017 9.91988 13.3617 10.0799C13.5217 10.2399 13.6728 10.4443 13.815 10.6932C13.9572 10.9421 14.0728 11.1999 14.1617 11.4665C14.2506 11.7332 14.3217 12.0265 14.375 12.3465C14.4283 12.6665 14.4728 12.9688 14.5083 13.2532V14.1065C14.5083 14.6754 14.3483 15.1199 14.0283 15.4399Z" fill="#1A1A1A"/>
</g>
<defs>
<clipPath id="clip0_20_1310">
<rect width="15.95" height="16" fill="white" transform="matrix(1 0 0 -1 0.800049 16.8799)"/>
</clipPath>
</defs>
</svg>
