<svg width="21" height="21" viewBox="0 0 21 21" fill="none" xmlns="http://www.w3.org/2000/svg">
<g clip-path="url(#clip0_20_1426)">
<path d="M20.6401 10.8233C20.6401 10.3344 20.4735 9.92327 20.1401 9.58994C19.8068 9.25661 19.3957 9.08994 18.9068 9.08994H3.77347V3.68994C3.77347 3.24549 3.92903 2.86772 4.24014 2.5566C4.46236 2.33438 4.71791 2.20105 5.0068 2.1566C5.29569 2.11216 5.59569 2.13438 5.9068 2.22327C5.5068 2.84549 5.35125 3.53438 5.44014 4.28994C5.52903 5.04549 5.84014 5.68994 6.37347 6.22327L6.5068 6.42327C6.64014 6.51216 6.78458 6.55661 6.94014 6.55661C7.09569 6.55661 7.21792 6.51216 7.3068 6.42327L11.1068 2.62327C11.2401 2.48994 11.3068 2.34549 11.3068 2.18994C11.3068 2.03438 11.2401 1.88994 11.1068 1.75661L10.9735 1.62327C10.3957 1.04549 9.69569 0.734383 8.87347 0.689938C8.05125 0.645494 7.32903 0.867716 6.7068 1.35661C6.17347 1.04549 5.59569 0.923271 4.97347 0.989939C4.35125 1.0566 3.81791 1.31216 3.37347 1.75661C2.84014 2.28994 2.57347 2.93438 2.57347 3.68994V9.08994H2.37347C1.88458 9.08994 1.47347 9.25661 1.14014 9.58994C0.806803 9.92327 0.640137 10.3344 0.640137 10.8233C0.640137 11.2233 0.751248 11.5677 0.97347 11.8566C1.19569 12.1455 1.46236 12.3566 1.77347 12.4899V13.7566C1.77347 14.8233 2.06236 15.8011 2.64014 16.6899C3.21791 17.5788 3.95125 18.2677 4.84014 18.7566L4.3068 19.8233C4.21791 20.0011 4.2068 20.1566 4.27347 20.2899C4.34014 20.4233 4.44014 20.5344 4.57347 20.6233C4.7068 20.7122 4.85125 20.7233 5.0068 20.6566C5.16236 20.5899 5.28458 20.4899 5.37347 20.3566L5.97347 19.1566C6.41791 19.2455 6.88458 19.2899 7.37347 19.2899H13.9068C14.3957 19.2899 14.8624 19.2455 15.3068 19.1566L15.9068 20.3566C15.9957 20.4899 16.1179 20.5899 16.2735 20.6566C16.429 20.7233 16.5735 20.7122 16.7068 20.6233C16.8401 20.5344 16.9401 20.4233 17.0068 20.2899C17.0735 20.1566 17.0624 20.0011 16.9735 19.8233L16.4401 18.7566C17.329 18.2677 18.0624 17.5788 18.6401 16.6899C19.2179 15.8011 19.5068 14.8233 19.5068 13.7566V12.4899C19.8179 12.3566 20.0846 12.1455 20.3068 11.8566C20.529 11.5677 20.6401 11.2233 20.6401 10.8233ZM9.84014 2.22327L6.97347 5.1566C6.66236 4.71216 6.52903 4.24549 6.57347 3.75661C6.61791 3.26772 6.81791 2.84549 7.17347 2.48994C7.52903 2.13438 7.96236 1.93438 8.47347 1.88994C8.98458 1.84549 9.44014 1.95661 9.84014 2.22327ZM2.37347 10.2899H18.9068C19.0401 10.2899 19.1624 10.3455 19.2735 10.4566C19.3846 10.5677 19.4401 10.701 19.4401 10.8566C19.4401 11.0122 19.3846 11.1455 19.2735 11.2566C19.1624 11.3677 19.0401 11.4233 18.9068 11.4233H2.37347C2.24014 11.4233 2.11791 11.3677 2.0068 11.2566C1.89569 11.1455 1.84014 11.0122 1.84014 10.8566C1.84014 10.701 1.89569 10.5677 2.0068 10.4566C2.11791 10.3455 2.24014 10.2899 2.37347 10.2899ZM18.3068 13.7566C18.3068 14.5566 18.1068 15.2899 17.7068 15.9566C17.3068 16.6233 16.7735 17.1566 16.1068 17.5566C15.4401 17.9566 14.7068 18.1566 13.9068 18.1566H7.37347C6.57347 18.1566 5.84014 17.9566 5.17347 17.5566C4.5068 17.1566 3.97347 16.6233 3.57347 15.9566C3.17347 15.2899 2.97347 14.5566 2.97347 13.7566V12.6233H18.3068V13.7566ZM9.1068 6.62327C9.1068 6.80105 9.16236 6.94549 9.27347 7.05661C9.38458 7.16772 9.51791 7.22327 9.67347 7.22327C9.82903 7.22327 9.96236 7.16772 10.0735 7.05661C10.1846 6.94549 10.2401 6.80105 10.2401 6.62327C10.2401 6.44549 10.1846 6.30105 10.0735 6.18994C9.96236 6.07883 9.82903 6.02327 9.67347 6.02327C9.51791 6.02327 9.38458 6.07883 9.27347 6.18994C9.16236 6.30105 9.1068 6.44549 9.1068 6.62327ZM10.7735 4.9566C10.7735 5.13438 10.829 5.27883 10.9401 5.38994C11.0512 5.50105 11.1846 5.55661 11.3401 5.55661C11.4957 5.55661 11.629 5.50105 11.7401 5.38994C11.8512 5.27883 11.9068 5.13438 11.9068 4.9566C11.9068 4.77883 11.8512 4.63438 11.7401 4.52327C11.629 4.41216 11.4957 4.35661 11.3401 4.35661C11.1846 4.35661 11.0512 4.41216 10.9401 4.52327C10.829 4.63438 10.7735 4.77883 10.7735 4.9566ZM11.1735 7.02327C11.1735 7.15661 11.229 7.28994 11.3401 7.42327C11.4512 7.55661 11.5846 7.62327 11.7401 7.62327C11.8957 7.62327 12.029 7.55661 12.1401 7.42327C12.2512 7.28994 12.3068 7.14549 12.3068 6.98994C12.3068 6.83438 12.2512 6.70105 12.1401 6.58994C12.029 6.47883 11.8957 6.42327 11.7401 6.42327C11.5846 6.42327 11.4512 6.47883 11.3401 6.58994C11.229 6.70105 11.1735 6.84549 11.1735 7.02327Z" fill="#1A1A1A"/>
</g>
<defs>
<clipPath id="clip0_20_1426">
<rect width="20" height="20" fill="white" transform="matrix(1 0 0 -1 0.640137 20.6899)"/>
</clipPath>
</defs>
</svg>
