<svg width="20" height="21" viewBox="0 0 20 21" fill="none" xmlns="http://www.w3.org/2000/svg">
<g clip-path="url(#clip0_20_1437)">
<path d="M16.1333 3.1034C15.2888 2.3034 14.3444 1.68118 13.2999 1.23673C12.2555 0.79229 11.1555 0.570066 9.99992 0.570066C8.84436 0.570066 7.73325 0.79229 6.66659 1.23673C5.59992 1.68118 4.66659 2.3034 3.86659 3.1034C3.06659 3.9034 2.44436 4.83673 1.99992 5.9034C1.55547 6.97007 1.33325 8.08118 1.33325 9.23673C1.33325 10.3923 1.55547 11.4923 1.99992 12.5367C2.44436 13.5812 3.06659 14.5256 3.86659 15.3701L8.46659 19.9701C8.86659 20.3701 9.36659 20.5701 9.96659 20.5701C10.5666 20.5701 11.0888 20.3701 11.5333 19.9701L16.1333 15.3701C16.9333 14.5256 17.5555 13.5812 17.9999 12.5367C18.4444 11.4923 18.6666 10.3923 18.6666 9.23673C18.6666 8.08118 18.4444 6.97007 17.9999 5.9034C17.5555 4.83673 16.9333 3.9034 16.1333 3.1034ZM15.2666 14.5034L10.6666 19.1034C10.4888 19.2812 10.2666 19.3701 9.99992 19.3701C9.73325 19.3701 9.48881 19.2812 9.26659 19.1034L4.66659 14.5034C3.95547 13.7923 3.42214 12.9812 3.06659 12.0701C2.71103 11.159 2.53325 10.2034 2.53325 9.2034C2.53325 8.2034 2.71103 7.24785 3.06659 6.33673C3.42214 5.42562 3.95547 4.62562 4.66659 3.93673C5.3777 3.24784 6.18881 2.71451 7.09992 2.33673C8.01103 1.95896 8.96659 1.77007 9.96659 1.77007C10.9666 1.77007 11.9221 1.95896 12.8333 2.33673C13.7444 2.71451 14.5555 3.23673 15.2666 3.9034C16.2444 4.88118 16.8999 6.01451 17.2333 7.3034C17.5666 8.59229 17.5666 9.88118 17.2333 11.1701C16.8999 12.459 16.2444 13.5701 15.2666 14.5034ZM9.99992 6.1034C9.15547 6.1034 8.42214 6.41451 7.79992 7.03673C7.1777 7.65896 6.86659 8.39229 6.86659 9.23673C6.86659 10.0812 7.1777 10.8034 7.79992 11.4034C8.42214 12.0034 9.15547 12.3034 9.99992 12.3034C10.8444 12.3034 11.5666 12.0034 12.1666 11.4034C12.7666 10.8034 13.0666 10.0812 13.0666 9.23673C13.0666 8.39229 12.7666 7.65896 12.1666 7.03673C11.5666 6.41451 10.8444 6.1034 9.99992 6.1034ZM9.99992 11.1701C9.46659 11.1701 9.01103 10.9812 8.63325 10.6034C8.25547 10.2256 8.06659 9.77007 8.06659 9.23673C8.06659 8.7034 8.25547 8.24785 8.63325 7.87007C9.01103 7.49229 9.46659 7.3034 9.99992 7.3034C10.5333 7.3034 10.9888 7.49229 11.3666 7.87007C11.7444 8.24785 11.9333 8.7034 11.9333 9.23673C11.9333 9.77007 11.7444 10.2256 11.3666 10.6034C10.9888 10.9812 10.5333 11.1701 9.99992 11.1701Z" fill="#1A1A1A"/>
</g>
<defs>
<clipPath id="clip0_20_1437">
<rect width="20" height="20" fill="white" transform="matrix(1 0 0 -1 0 20.5701)"/>
</clipPath>
</defs>
</svg>
