<svg width="20" height="21" viewBox="0 0 20 21" fill="none" xmlns="http://www.w3.org/2000/svg">
<g clip-path="url(#clip0_20_1465)">
<path d="M17.5333 6.95664H8.73333C8.28889 6.95664 7.86667 7.08997 7.46667 7.35664C7.37778 6.68997 7.1 6.14553 6.63333 5.72331C6.16667 5.30108 5.62222 5.08997 5 5.08997C4.51111 5.08997 4.06667 5.20108 3.66667 5.42331V4.42331C3.66667 4.24553 3.61111 4.10108 3.5 3.98997C3.38889 3.87886 3.24444 3.82331 3.06667 3.82331H0.6C0.422222 3.82331 0.277778 3.87886 0.166667 3.98997C0.0555556 4.10108 0 4.24553 0 4.42331V16.9566C0 17.1344 0.0555556 17.2789 0.166667 17.39C0.277778 17.5011 0.422222 17.5566 0.6 17.5566H3.06667C3.24444 17.5566 3.38889 17.5011 3.5 17.39C3.61111 17.2789 3.66667 17.1344 3.66667 16.9566V15.0233H16.3333V16.9566C16.3333 17.1344 16.3889 17.2789 16.5 17.39C16.6111 17.5011 16.7556 17.5566 16.9333 17.5566H19.4C19.5778 17.5566 19.7222 17.5011 19.8333 17.39C19.9444 17.2789 20 17.1344 20 16.9566V9.42331C20 8.75664 19.7556 8.17886 19.2667 7.68997C18.7778 7.20108 18.2 6.95664 17.5333 6.95664ZM5 6.22331C5.35556 6.22331 5.65556 6.35664 5.9 6.62331C6.14444 6.88997 6.26667 7.20108 6.26667 7.55664C6.26667 7.9122 6.14444 8.2122 5.9 8.45664C5.65556 8.70108 5.35556 8.82331 5 8.82331C4.64444 8.82331 4.33333 8.70108 4.06667 8.45664C3.8 8.2122 3.66667 7.9122 3.66667 7.55664C3.66667 7.20108 3.8 6.88997 4.06667 6.62331C4.33333 6.35664 4.64444 6.22331 5 6.22331ZM3.66667 9.62331C4.06667 9.88997 4.5 10.0233 4.96667 10.0233C5.43333 10.0233 5.86667 9.88997 6.26667 9.62331V11.3566H3.66667V9.62331ZM18.8 16.3566H17.4667V14.4233C17.4667 14.29 17.4111 14.1678 17.3 14.0566C17.1889 13.9455 17.0667 13.89 16.9333 13.89H3.06667C2.93333 13.89 2.81111 13.9455 2.7 14.0566C2.58889 14.1678 2.53333 14.29 2.53333 14.4233V16.3566H1.2V5.02331H2.53333V11.9566C2.53333 12.09 2.58889 12.2233 2.7 12.3566C2.81111 12.49 2.93333 12.5566 3.06667 12.5566H18.8V16.3566ZM18.8 11.3566H7.46667V9.42331C7.46667 9.06775 7.58889 8.76775 7.83333 8.52331C8.07778 8.27886 8.37778 8.15664 8.73333 8.15664H17.5333C17.8889 8.15664 18.1889 8.27886 18.4333 8.52331C18.6778 8.76775 18.8 9.06775 18.8 9.42331V11.3566Z" fill="#1A1A1A"/>
</g>
<defs>
<clipPath id="clip0_20_1465">
<rect width="20" height="20" fill="white" transform="matrix(1 0 0 -1 0 20.6899)"/>
</clipPath>
</defs>
</svg>
