<svg width="21" height="21" viewBox="0 0 21 21" fill="none" xmlns="http://www.w3.org/2000/svg">
<g clip-path="url(#clip0_20_1469)">
<path d="M20.6397 10.8233C20.6397 10.3344 20.473 9.92327 20.1397 9.58994C19.8063 9.25661 19.3952 9.08994 18.9063 9.08994H3.77298V3.68994C3.77298 3.24549 3.92854 2.86772 4.23965 2.5566C4.46187 2.33438 4.71743 2.20105 5.00632 2.1566C5.2952 2.11216 5.5952 2.13438 5.90632 2.22327C5.50632 2.84549 5.35076 3.53438 5.43965 4.28994C5.52854 5.04549 5.83965 5.68994 6.37298 6.22327L6.50632 6.42327C6.63965 6.51216 6.78409 6.55661 6.93965 6.55661C7.0952 6.55661 7.21743 6.51216 7.30632 6.42327L11.1063 2.62327C11.2396 2.48994 11.3063 2.34549 11.3063 2.18994C11.3063 2.03438 11.2396 1.88994 11.1063 1.75661L10.973 1.62327C10.3952 1.04549 9.6952 0.734383 8.87298 0.689938C8.05076 0.645494 7.32854 0.867716 6.70632 1.35661C6.17298 1.04549 5.5952 0.923271 4.97298 0.989939C4.35076 1.0566 3.81743 1.31216 3.37298 1.75661C2.83965 2.28994 2.57298 2.93438 2.57298 3.68994V9.08994H2.37298C1.88409 9.08994 1.47298 9.25661 1.13965 9.58994C0.806315 9.92327 0.639648 10.3344 0.639648 10.8233C0.639648 11.2233 0.75076 11.5677 0.972982 11.8566C1.1952 12.1455 1.46187 12.3566 1.77298 12.4899V13.7566C1.77298 14.8233 2.06187 15.8011 2.63965 16.6899C3.21743 17.5788 3.95076 18.2677 4.83965 18.7566L4.30632 19.8233C4.21743 20.0011 4.20632 20.1566 4.27298 20.2899C4.33965 20.4233 4.43965 20.5344 4.57298 20.6233C4.70632 20.7122 4.85076 20.7233 5.00632 20.6566C5.16187 20.5899 5.28409 20.4899 5.37298 20.3566L5.97298 19.1566C6.41743 19.2455 6.88409 19.2899 7.37298 19.2899H13.9063C14.3952 19.2899 14.8619 19.2455 15.3063 19.1566L15.9063 20.3566C15.9952 20.4899 16.1174 20.5899 16.273 20.6566C16.4285 20.7233 16.573 20.7122 16.7063 20.6233C16.8396 20.5344 16.9396 20.4233 17.0063 20.2899C17.073 20.1566 17.0619 20.0011 16.973 19.8233L16.4396 18.7566C17.3285 18.2677 18.0619 17.5788 18.6396 16.6899C19.2174 15.8011 19.5063 14.8233 19.5063 13.7566V12.4899C19.8174 12.3566 20.0841 12.1455 20.3063 11.8566C20.5285 11.5677 20.6397 11.2233 20.6397 10.8233ZM9.83965 2.22327L6.97298 5.1566C6.66187 4.71216 6.52854 4.24549 6.57298 3.75661C6.61743 3.26772 6.81743 2.84549 7.17298 2.48994C7.52854 2.13438 7.96187 1.93438 8.47298 1.88994C8.98409 1.84549 9.43965 1.95661 9.83965 2.22327ZM2.37298 10.2899H18.9063C19.0396 10.2899 19.1619 10.3455 19.273 10.4566C19.3841 10.5677 19.4396 10.701 19.4396 10.8566C19.4396 11.0122 19.3841 11.1455 19.273 11.2566C19.1619 11.3677 19.0396 11.4233 18.9063 11.4233H2.37298C2.23965 11.4233 2.11743 11.3677 2.00632 11.2566C1.8952 11.1455 1.83965 11.0122 1.83965 10.8566C1.83965 10.701 1.8952 10.5677 2.00632 10.4566C2.11743 10.3455 2.23965 10.2899 2.37298 10.2899ZM18.3063 13.7566C18.3063 14.5566 18.1063 15.2899 17.7063 15.9566C17.3063 16.6233 16.773 17.1566 16.1063 17.5566C15.4396 17.9566 14.7063 18.1566 13.9063 18.1566H7.37298C6.57298 18.1566 5.83965 17.9566 5.17298 17.5566C4.50632 17.1566 3.97298 16.6233 3.57298 15.9566C3.17298 15.2899 2.97298 14.5566 2.97298 13.7566V12.6233H18.3063V13.7566ZM9.10632 6.62327C9.10632 6.80105 9.16187 6.94549 9.27298 7.05661C9.38409 7.16772 9.51743 7.22327 9.67298 7.22327C9.82854 7.22327 9.96187 7.16772 10.073 7.05661C10.1841 6.94549 10.2396 6.80105 10.2396 6.62327C10.2396 6.44549 10.1841 6.30105 10.073 6.18994C9.96187 6.07883 9.82854 6.02327 9.67298 6.02327C9.51743 6.02327 9.38409 6.07883 9.27298 6.18994C9.16187 6.30105 9.10632 6.44549 9.10632 6.62327ZM10.773 4.9566C10.773 5.13438 10.8285 5.27883 10.9396 5.38994C11.0508 5.50105 11.1841 5.55661 11.3396 5.55661C11.4952 5.55661 11.6285 5.50105 11.7396 5.38994C11.8508 5.27883 11.9063 5.13438 11.9063 4.9566C11.9063 4.77883 11.8508 4.63438 11.7396 4.52327C11.6285 4.41216 11.4952 4.35661 11.3396 4.35661C11.1841 4.35661 11.0508 4.41216 10.9396 4.52327C10.8285 4.63438 10.773 4.77883 10.773 4.9566ZM11.173 7.02327C11.173 7.15661 11.2285 7.28994 11.3396 7.42327C11.4508 7.55661 11.5841 7.62327 11.7396 7.62327C11.8952 7.62327 12.0285 7.55661 12.1396 7.42327C12.2508 7.28994 12.3063 7.14549 12.3063 6.98994C12.3063 6.83438 12.2508 6.70105 12.1396 6.58994C12.0285 6.47883 11.8952 6.42327 11.7396 6.42327C11.5841 6.42327 11.4508 6.47883 11.3396 6.58994C11.2285 6.70105 11.173 6.84549 11.173 7.02327Z" fill="#1A1A1A"/>
</g>
<defs>
<clipPath id="clip0_20_1469">
<rect width="20" height="20" fill="white" transform="matrix(1 0 0 -1 0.639648 20.6899)"/>
</clipPath>
</defs>
</svg>
