<svg width="19" height="19" viewBox="0 0 19 19" fill="none" xmlns="http://www.w3.org/2000/svg">
<path d="M12.0499 3.40994C11.3699 3.40994 10.7699 3.62994 10.2499 4.06994C9.72987 4.50994 9.40987 5.04994 9.28987 5.68994H1.90987C1.74987 5.68994 1.61987 5.73994 1.51987 5.83994C1.41987 5.93994 1.36987 6.06994 1.36987 6.22994C1.36987 6.38994 1.41987 6.52994 1.51987 6.64994C1.61987 6.76994 1.74987 6.82994 1.90987 6.82994H9.28987C9.40987 7.46994 9.72987 7.99994 10.2499 8.41994C10.7699 8.83994 11.3699 9.04994 12.0499 9.04994C12.7299 9.04994 13.3199 8.83994 13.8199 8.41994C14.3199 7.99994 14.6499 7.46994 14.8099 6.82994H16.5499C16.7099 6.82994 16.8399 6.76994 16.9399 6.64994C17.0399 6.52994 17.0899 6.38994 17.0899 6.22994C17.0899 6.06994 17.0399 5.93994 16.9399 5.83994C16.8399 5.73994 16.7099 5.68994 16.5499 5.68994H14.8099C14.6499 5.04994 14.3199 4.50994 13.8199 4.06994C13.3199 3.62994 12.7299 3.40994 12.0499 3.40994ZM12.0499 4.54994C12.5299 4.54994 12.9299 4.71994 13.2499 5.05994C13.5699 5.39994 13.7299 5.79994 13.7299 6.25994C13.7299 6.71994 13.5699 7.10994 13.2499 7.42994C12.9299 7.74994 12.5299 7.90994 12.0499 7.90994C11.5699 7.90994 11.1699 7.74994 10.8499 7.42994C10.5299 7.10994 10.3699 6.71994 10.3699 6.25994C10.3699 5.79994 10.5299 5.39994 10.8499 5.05994C11.1699 4.71994 11.5699 4.54994 12.0499 4.54994ZM6.40987 9.04994C5.72987 9.04994 5.13987 9.25994 4.63987 9.67994C4.13987 10.0999 3.80987 10.6499 3.64987 11.3299H1.90987C1.74987 11.3299 1.61987 11.3799 1.51987 11.4799C1.41987 11.5799 1.36987 11.7099 1.36987 11.8699C1.36987 12.0299 1.41987 12.1599 1.51987 12.2599C1.61987 12.3599 1.74987 12.4099 1.90987 12.4099H3.64987C3.80987 13.0899 4.13987 13.6399 4.63987 14.0599C5.13987 14.4799 5.72987 14.6899 6.40987 14.6899C7.08987 14.6899 7.68987 14.4799 8.20987 14.0599C8.72987 13.6399 9.04987 13.0899 9.16987 12.4099H16.5499C16.7099 12.4099 16.8399 12.3599 16.9399 12.2599C17.0399 12.1599 17.0899 12.0299 17.0899 11.8699C17.0899 11.7099 17.0399 11.5799 16.9399 11.4799C16.8399 11.3799 16.7099 11.3299 16.5499 11.3299H9.16987C9.04987 10.6499 8.72987 10.0999 8.20987 9.67994C7.68987 9.25994 7.08987 9.04994 6.40987 9.04994ZM6.40987 10.1899C6.88987 10.1899 7.28987 10.3499 7.60987 10.6699C7.92987 10.9899 8.08987 11.3899 8.08987 11.8699C8.08987 12.3499 7.92987 12.7499 7.60987 13.0699C7.28987 13.3899 6.88987 13.5499 6.40987 13.5499C5.92987 13.5499 5.52987 13.3899 5.20987 13.0699C4.88987 12.7499 4.72987 12.3499 4.72987 11.8699C4.72987 11.3899 4.88987 10.9899 5.20987 10.6699C5.52987 10.3499 5.92987 10.1899 6.40987 10.1899Z" fill="#1A1A1A"/>
</svg>
