<svg width="21" height="21" viewBox="0 0 21 21" fill="none" xmlns="http://www.w3.org/2000/svg">
<g clip-path="url(#clip0_20_1449)">
<path d="M16.3867 19.4899H13.9867C13.8534 19.4899 13.72 19.5566 13.5867 19.6899C13.4534 19.8233 13.3867 19.9677 13.3867 20.1233C13.3867 20.2788 13.4534 20.4122 13.5867 20.5233C13.72 20.6344 13.8534 20.6899 13.9867 20.6899H16.3867C16.5645 20.6899 16.7089 20.6344 16.82 20.5233C16.9311 20.4122 16.9867 20.2788 16.9867 20.1233C16.9867 19.9677 16.9311 19.8233 16.82 19.6899C16.7089 19.5566 16.5645 19.4899 16.3867 19.4899ZM11.6534 19.4899H9.32002C9.14224 19.4899 8.9978 19.5566 8.88669 19.6899C8.77558 19.8233 8.72002 19.9677 8.72002 20.1233C8.72002 20.2788 8.77558 20.4122 8.88669 20.5233C8.9978 20.6344 9.14224 20.6899 9.32002 20.6899H11.6534C11.8311 20.6899 11.9756 20.6344 12.0867 20.5233C12.1978 20.4122 12.2534 20.2788 12.2534 20.1233C12.2534 19.9677 12.1978 19.8233 12.0867 19.6899C11.9756 19.5566 11.8311 19.4899 11.6534 19.4899ZM19.92 8.88994C19.7867 8.88994 19.6534 8.9455 19.52 9.05661C19.3867 9.16772 19.32 9.31216 19.32 9.48994V11.8233C19.32 12.0011 19.3867 12.1455 19.52 12.2566C19.6534 12.3677 19.7978 12.4233 19.9534 12.4233C20.1089 12.4233 20.2422 12.3677 20.3534 12.2566C20.4645 12.1455 20.52 12.0011 20.52 11.8233V9.48994C20.52 9.31216 20.4645 9.16772 20.3534 9.05661C20.2422 8.9455 20.0978 8.88994 19.92 8.88994ZM19.92 13.5566C19.7867 13.5566 19.6534 13.6233 19.52 13.7566C19.3867 13.8899 19.32 14.0233 19.32 14.1566V16.4899C19.32 16.6677 19.3867 16.8122 19.52 16.9233C19.6534 17.0344 19.7978 17.0899 19.9534 17.0899C20.1089 17.0899 20.2422 17.0344 20.3534 16.9233C20.4645 16.8122 20.52 16.6677 20.52 16.4899V14.1566C20.52 14.0233 20.4645 13.8899 20.3534 13.7566C20.2422 13.6233 20.0978 13.5566 19.92 13.5566ZM6.98669 19.4899H6.38669V18.9566C6.38669 18.7788 6.33113 18.6344 6.22002 18.5233C6.10891 18.4122 5.96446 18.3566 5.78669 18.3566C5.60891 18.3566 5.46446 18.4122 5.35335 18.5233C5.24224 18.6344 5.18669 18.7788 5.18669 18.9566V20.0899C5.18669 20.2677 5.24224 20.4122 5.35335 20.5233C5.46446 20.6344 5.60891 20.6899 5.78669 20.6899H6.98669C7.12002 20.6899 7.24224 20.6344 7.35335 20.5233C7.46446 20.4122 7.52002 20.2788 7.52002 20.1233C7.52002 19.9677 7.46446 19.8233 7.35335 19.6899C7.24224 19.5566 7.12002 19.4899 6.98669 19.4899ZM19.92 5.35661H18.7867C18.6089 5.35661 18.4645 5.41216 18.3534 5.52327C18.2422 5.63439 18.1867 5.77883 18.1867 5.95661C18.1867 6.13439 18.2422 6.27883 18.3534 6.38994C18.4645 6.50105 18.6089 6.55661 18.7867 6.55661H19.32V7.15661C19.32 7.28994 19.3867 7.41216 19.52 7.52327C19.6534 7.63439 19.7978 7.68994 19.9534 7.68994C20.1089 7.68994 20.2422 7.63439 20.3534 7.52327C20.4645 7.41216 20.52 7.28994 20.52 7.15661V5.95661C20.52 5.77883 20.4645 5.63439 20.3534 5.52327C20.2422 5.41216 20.0978 5.35661 19.92 5.35661ZM19.92 18.3566C19.7867 18.3566 19.6534 18.4122 19.52 18.5233C19.3867 18.6344 19.32 18.7788 19.32 18.9566V19.4899H18.7867C18.6089 19.4899 18.4645 19.5566 18.3534 19.6899C18.2422 19.8233 18.1867 19.9677 18.1867 20.1233C18.1867 20.2788 18.2422 20.4122 18.3534 20.5233C18.4645 20.6344 18.6089 20.6899 18.7867 20.6899H19.92C20.0978 20.6899 20.2422 20.6344 20.3534 20.5233C20.4645 20.4122 20.52 20.2677 20.52 20.0899V18.9566C20.52 18.7788 20.4645 18.6344 20.3534 18.5233C20.2422 18.4122 20.0978 18.3566 19.92 18.3566ZM16.3867 5.35661H15.7867V1.28994C15.7867 1.11216 15.72 0.967718 15.5867 0.856607C15.4534 0.745497 15.32 0.689939 15.1867 0.689939H1.12002C0.942242 0.689939 0.797797 0.745497 0.686686 0.856607C0.575575 0.967718 0.52002 1.11216 0.52002 1.28994V15.3566C0.52002 15.4899 0.575575 15.6233 0.686686 15.7566C0.797797 15.8899 0.942242 15.9566 1.12002 15.9566H5.18669V16.4899C5.18669 16.6677 5.24224 16.8122 5.35335 16.9233C5.46446 17.0344 5.60891 17.0899 5.78669 17.0899C5.96446 17.0899 6.10891 17.0344 6.22002 16.9233C6.33113 16.8122 6.38669 16.6677 6.38669 16.4899V6.55661H16.3867C16.5645 6.55661 16.7089 6.50105 16.82 6.38994C16.9311 6.27883 16.9867 6.13439 16.9867 5.95661C16.9867 5.77883 16.9311 5.63439 16.82 5.52327C16.7089 5.41216 16.5645 5.35661 16.3867 5.35661ZM14.5867 5.35661H5.78669C5.60891 5.35661 5.46446 5.41216 5.35335 5.52327C5.24224 5.63439 5.18669 5.77883 5.18669 5.95661V14.7566H1.72002V1.88994H14.5867V5.35661Z" fill="#1A1A1A"/>
</g>
<defs>
<clipPath id="clip0_20_1449">
<rect width="20" height="20" fill="white" transform="matrix(1 0 0 -1 0.52002 20.6899)"/>
</clipPath>
</defs>
</svg>
