<svg width="16" height="14" viewBox="0 0 16 14" fill="none" xmlns="http://www.w3.org/2000/svg">
<g clip-path="url(#clip0_20_1484)">
<path d="M1.17749 6.42826H13.1882L8.58907 2.04902C8.34825 1.81969 8.33892 1.43871 8.5683 1.19796C8.79738 0.957509 9.17847 0.947879 9.41959 1.17719L14.6719 6.17878C14.8992 6.40628 15.0247 6.70843 15.0247 7.03013C15.0247 7.35153 14.8992 7.65398 14.6613 7.89141L9.4193 12.8828C9.3028 12.9938 9.15349 13.0489 9.00418 13.0489C8.84524 13.0489 8.6863 12.9863 8.568 12.862C8.33862 12.6213 8.34795 12.2406 8.58877 12.0113L13.2071 7.63201H1.17749C0.845159 7.63201 0.575439 7.36237 0.575439 7.03013C0.575439 6.6979 0.845159 6.42826 1.17749 6.42826Z" fill="white"/>
</g>
<defs>
<clipPath id="clip0_20_1484">
<rect width="15" height="12.84" fill="white" transform="translate(0.300049 0.610107)"/>
</clipPath>
</defs>
</svg>
