<svg width="16" height="14" viewBox="0 0 16 14" fill="none" xmlns="http://www.w3.org/2000/svg">
<g clip-path="url(#clip0_20_1638)">
<path d="M1.17749 6.79838H13.1882L8.58907 2.41913C8.34825 2.18981 8.33892 1.80883 8.5683 1.56808C8.79738 1.32763 9.17847 1.318 9.41959 1.54731L14.6719 6.54889C14.8992 6.7764 15.0247 7.07854 15.0247 7.40025C15.0247 7.72165 14.8992 8.02409 14.6613 8.26153L9.4193 13.2529C9.3028 13.3639 9.15349 13.419 9.00418 13.419C8.84524 13.419 8.6863 13.3564 8.568 13.2322C8.33862 12.9914 8.34795 12.6107 8.58877 12.3814L13.2071 8.00213H1.17749C0.845159 8.00213 0.575439 7.73248 0.575439 7.40025C0.575439 7.06802 0.845159 6.79838 1.17749 6.79838Z" fill="white"/>
</g>
<defs>
<clipPath id="clip0_20_1638">
<rect width="15" height="12.84" fill="white" transform="translate(0.300049 0.980225)"/>
</clipPath>
</defs>
</svg>
