<svg width="14" height="13" viewBox="0 0 14 13" fill="none" xmlns="http://www.w3.org/2000/svg">
<g clip-path="url(#clip0_20_1665)">
<path d="M0.8125 5.90517H12.0341L7.73716 1.81242C7.51216 1.5981 7.50344 1.24204 7.71775 1.01704C7.93178 0.792323 8.28784 0.783323 8.51312 0.997636L13.4204 5.67201C13.6327 5.88464 13.75 6.16701 13.75 6.46767C13.75 6.76804 13.6327 7.0507 13.4105 7.27261L8.51284 11.9374C8.404 12.0412 8.2645 12.0927 8.125 12.0927C7.9765 12.0927 7.828 12.0342 7.71747 11.918C7.50316 11.693 7.51188 11.3372 7.73688 11.1229L12.0518 7.03017H0.8125C0.502 7.03017 0.25 6.77817 0.25 6.46767C0.25 6.15717 0.502 5.90517 0.8125 5.90517Z" fill="white"/>
</g>
<defs>
<clipPath id="clip0_20_1665">
<rect width="14" height="12" fill="white" transform="translate(0 0.610107)"/>
</clipPath>
</defs>
</svg>
