<svg width="20" height="25" viewBox="0 0 20 25" fill="none" xmlns="http://www.w3.org/2000/svg">
<g clip-path="url(#clip0_20_1691)">
<path d="M16.0369 13.0137C16.0369 13.1147 15.8853 16.0961 19.1699 17.6626C18.5635 19.5323 16.4412 23.6759 13.9651 23.6759C12.5502 23.6759 11.7417 22.7663 10.1247 22.7663C8.45715 22.7663 7.54758 23.6759 6.28428 23.6759C3.85875 23.777 1.53428 19.2291 0.877369 17.3594C0.37205 15.9445 0.169922 14.5802 0.169922 13.2663C0.169922 8.76898 3.1513 6.59611 5.98109 6.54558C7.34545 6.54558 9.06354 7.50568 9.82152 7.50568C10.5289 7.50568 12.4997 6.34345 14.3188 6.49504C16.1885 6.64664 17.6034 7.35409 18.5635 8.71845C16.896 9.77962 16.0369 11.144 16.0369 13.0137ZM13.2071 4.72643C12.1965 5.88866 10.9837 6.54558 9.66992 6.44451C9.56886 5.08015 10.0742 3.81685 10.9837 2.80621C11.7922 1.89664 13.2071 1.13866 14.4199 1.0376C14.4199 1.59345 14.5715 3.10941 13.2071 4.72643Z" fill="white"/>
</g>
<defs>
<clipPath id="clip0_20_1691">
<rect width="19" height="24" fill="white" transform="translate(0.169922 0.5)"/>
</clipPath>
</defs>
</svg>
