<svg width="12" height="14" viewBox="0 0 12 14" fill="none" xmlns="http://www.w3.org/2000/svg">
<g clip-path="url(#clip0_20_1711)">
<path d="M5.41519 0.433202L5.41448 0.433908L0.897045 4.95134C0.545786 5.30573 0.548327 5.87778 0.90272 6.22904C0.930728 6.25679 0.960515 6.28269 0.991911 6.30657C1.36971 6.55986 1.87496 6.50458 2.18903 6.17557L4.69169 3.68194C4.82439 3.54938 4.93566 3.39698 5.02147 3.2302L5.16602 2.95463L5.16603 11.8314C5.14691 12.286 5.45774 12.6883 5.90237 12.7846C6.39491 12.8645 6.85896 12.53 6.93884 12.0374C6.94722 11.9857 6.95109 11.9334 6.95041 11.8811V2.9727L7.04076 3.16695C7.12928 3.35649 7.25003 3.52919 7.39764 3.67742L9.89578 6.17557C10.2099 6.50458 10.7151 6.55986 11.0929 6.30657C11.4955 6.01178 11.5829 5.44645 11.2881 5.04383C11.2643 5.01131 11.2383 4.98039 11.2104 4.95134L6.69292 0.433908C6.34028 0.0808972 5.76823 0.0805873 5.41519 0.433202Z" fill="white"/>
</g>
<defs>
<clipPath id="clip0_20_1711">
<rect width="11" height="13" fill="white" transform="translate(0.5 0.129883)"/>
</clipPath>
</defs>
</svg>
